<?xml version="1.0" encoding="utf-8"?>
<!-- Generator: Adobe Illustrator 16.0.0, SVG Export Plug-In . SVG Version: 6.00 Build 0)  -->
<!DOCTYPE svg PUBLIC "-//W3C//DTD SVG 1.1//EN" "http://www.w3.org/Graphics/SVG/1.1/DTD/svg11.dtd">
<svg version="1.1" id="Layer_1" xmlns="http://www.w3.org/2000/svg" xmlns:xlink="http://www.w3.org/1999/xlink" x="0px" y="0px"
	 width="24px" height="24px" viewBox="0 0 24 24" enable-background="new 0 0 24 24" xml:space="preserve">
<path fill="none" d="M19.493,4.505h-1.07v1.07c0,0.591-0.479,1.071-1.071,1.071c-0.591,0-1.069-0.48-1.069-1.071v-1.07H7.717v1.07
	c0,0.591-0.48,1.071-1.071,1.071s-1.07-0.48-1.07-1.071v-1.07H4.504c-0.591,0-1.07,0.479-1.07,1.07v3.212h17.129V5.575
	C20.563,4.984,20.084,4.505,19.493,4.505z"/>
<path fill="#0F0F0F" d="M19.493,2.364h-1.07V1.293c0-0.591-0.479-1.07-1.071-1.07c-0.591,0-1.069,0.479-1.069,1.07v1.071H7.717
	V1.293c0-0.591-0.48-1.07-1.071-1.07s-1.07,0.479-1.07,1.07v1.071H4.504c-1.773,0-3.211,1.438-3.211,3.211v14.989
	c0,1.773,1.438,3.212,3.211,3.212h14.989c1.773,0,3.212-1.438,3.212-3.212V5.575C22.705,3.802,21.267,2.364,19.493,2.364z
	 M20.563,20.564c0,0.591-0.479,1.07-1.07,1.07H4.504c-0.591,0-1.07-0.479-1.07-1.07v-9.636h17.129V20.564z M20.563,8.788H3.435
	V5.575c0-0.591,0.479-1.07,1.07-1.07h1.071v1.07c0,0.591,0.479,1.071,1.07,1.071s1.071-0.48,1.071-1.071v-1.07h8.565v1.07
	c0,0.591,0.479,1.071,1.069,1.071c0.592,0,1.071-0.48,1.071-1.071v-1.07h1.07c0.591,0,1.07,0.479,1.07,1.07V8.788z"/>
<path fill="#0F0F0F" d="M6.646,14.141c0-0.592,0.48-1.07,1.071-1.07s1.07,0.479,1.07,1.07c0,0.591-0.479,1.071-1.07,1.071
	S6.646,14.731,6.646,14.141z"/>
<path fill="#0F0F0F" d="M7.717,17.354c-0.591,0-1.071,0.478-1.071,1.069c0,0.591,0.48,1.07,1.071,1.07s1.07-0.479,1.07-1.07
	C8.787,17.831,8.308,17.354,7.717,17.354z"/>
<path fill="#0F0F0F" d="M10.928,14.141c0-0.592,0.48-1.07,1.071-1.07s1.07,0.479,1.07,1.07c0,0.591-0.479,1.071-1.07,1.071
	S10.928,14.731,10.928,14.141z"/>
<path fill="#0F0F0F" d="M11.999,17.354c-0.591,0-1.071,0.478-1.071,1.069c0,0.591,0.48,1.07,1.071,1.07s1.07-0.479,1.07-1.07
	C13.069,17.831,12.59,17.354,11.999,17.354z"/>
<path fill="#0F0F0F" d="M15.211,14.141c0-0.592,0.479-1.07,1.071-1.07c0.591,0,1.069,0.479,1.069,1.07
	c0,0.591-0.479,1.071-1.069,1.071C15.689,15.212,15.211,14.731,15.211,14.141z"/>
<path fill="#0F0F0F" d="M16.282,17.354c-0.593,0-1.071,0.478-1.071,1.069c0,0.591,0.479,1.07,1.071,1.07
	c0.591,0,1.069-0.479,1.069-1.07C17.352,17.831,16.873,17.354,16.282,17.354z"/>
</svg>
