<?xml version="1.0" encoding="utf-8"?>
<!-- Generator: Adobe Illustrator 16.0.0, SVG Export Plug-In . SVG Version: 6.00 Build 0)  -->
<!DOCTYPE svg PUBLIC "-//W3C//DTD SVG 1.1//EN" "http://www.w3.org/Graphics/SVG/1.1/DTD/svg11.dtd">
<svg version="1.1" id="Layer_1" xmlns="http://www.w3.org/2000/svg" xmlns:xlink="http://www.w3.org/1999/xlink" x="0px" y="0px"
	 width="24px" height="24px" viewBox="0 0 24 24" enable-background="new 0 0 24 24" xml:space="preserve">
<path fill="#0F0F0F" d="M23.874,12c0,6.559-5.315,11.875-11.875,11.875C5.442,23.875,0.125,18.559,0.125,12
	C0.125,5.442,5.442,0.125,12,0.125C18.559,0.125,23.874,5.442,23.874,12z M2.292,12c0,5.361,4.347,9.707,9.708,9.707
	c5.363,0,9.709-4.346,9.709-9.707c0-5.362-4.347-9.708-9.709-9.708C6.639,2.292,2.292,6.638,2.292,12z"/>
<path fill="#0F0F0F" d="M12,4.443c-0.596,0-1.079,0.482-1.079,1.08v6.981c0,0,0,0.281,0.136,0.492
	c0.092,0.18,0.234,0.336,0.421,0.445l4.986,2.877c0.517,0.301,1.179,0.123,1.478-0.395c0.297-0.516,0.12-1.178-0.397-1.475
	l-4.465-2.578V5.523C13.08,4.926,12.595,4.443,12,4.443z"/>
</svg>
