<svg width="36" height="23" viewBox="0 0 36 23" fill="none" xmlns="http://www.w3.org/2000/svg">
<path fill-rule="evenodd" clip-rule="evenodd" d="M10.3275 18.8365L10.2567 18.5852H11.0999L12.0637 20.8694L12.0614 18.8427L11.947 18.5832H12.9382L12.8381 18.8427V21.9309L12.9089 22.1826H12.065L11.1009 19.9512L11.1032 21.9251L11.2176 22.1846H10.2267L10.3269 21.9251V18.8365H10.3275ZM17.8858 3.32569C17.625 4.29414 18.6837 5.37675 19.8966 3.51348L19.5924 3.29358C19.7216 3.08386 19.9101 2.91664 20.1342 2.81281C20.3584 2.70899 20.6084 2.67315 20.8529 2.70979C20.4479 3.0083 20.1253 3.4038 19.9152 3.85954H19.9174C19.2285 5.16824 20.6739 6.15713 21.6205 4.7028L21.104 4.31977C21.609 3.51089 22.4014 3.08212 23.6104 3.15996C21.9475 4.37685 20.9455 6.44446 20.8774 9.71436C18.7941 9.18085 16.609 9.18085 14.5258 9.71436C14.4576 6.44446 13.4557 4.37717 11.7931 3.15996C13.0018 3.08212 13.7941 3.51089 14.2992 4.31977L13.7834 4.7041C14.7289 6.15872 16.1756 5.16983 15.4864 3.86084L15.4965 3.85598C15.2863 3.40197 14.9644 3.00799 14.5607 2.71043C14.8052 2.67384 15.0552 2.7097 15.2793 2.81352C15.5035 2.91734 15.692 3.08454 15.8212 3.29423L15.517 3.51413C16.7234 5.37029 17.7756 4.30063 17.52 3.3338C17.3346 3.31512 17.1637 3.2254 17.0436 3.08362C16.9236 2.94185 16.8637 2.75915 16.8767 2.57422L17.3067 0.000648661V2.34945C17.3067 2.44881 17.3464 2.54409 17.417 2.61434C17.4876 2.68459 17.5834 2.72406 17.6833 2.72406C17.7832 2.72406 17.879 2.68459 17.9496 2.61434C18.0202 2.54409 18.0599 2.44881 18.0599 2.34945V0L18.4903 2.57357C18.5035 2.75192 18.4483 2.92862 18.3359 3.06816C18.2234 3.20769 18.0621 3.2997 17.8842 3.32569H17.8858ZM15.1117 6.86935L15.0436 7.07916H14.8215L15.0015 7.20891L14.9324 7.41878L15.1114 7.28903L15.2907 7.41878L15.2219 7.20828L15.4016 7.07854H15.1798L15.1114 6.86867L15.1117 6.86935ZM20.3407 6.86935L20.2725 7.07916H20.0508L20.2301 7.20891L20.1613 7.41878L20.3407 7.28903L20.5197 7.41878L20.4518 7.20828L20.6319 7.07854H20.4098L20.3416 6.86867L20.3407 6.86935ZM17.6996 5.85711V8.18777L17.6259 8.38234C17.8698 8.3806 18.1142 8.38688 18.3592 8.40115L18.2745 8.2004V6.71302C18.3929 7.00252 18.5116 7.29356 18.6305 7.5861C18.7492 7.87965 18.8685 8.17605 18.9892 8.47249C19.197 8.50818 19.405 8.55068 19.6133 8.59997C19.5953 8.53346 19.5781 8.46733 19.5607 8.40115V6.11299L19.6351 5.94369C19.3903 5.87211 19.1458 5.81182 18.9015 5.76272L18.9859 5.97254V7.49045C18.8666 7.18619 18.7473 6.88198 18.6272 6.58231C18.5073 6.28263 18.3895 5.98296 18.2712 5.68617C18.063 5.67469 17.8549 5.66953 17.6471 5.67059C17.6644 5.73354 17.6817 5.79581 17.6996 5.85871V5.85711ZM16.4 6.33255V8.00612C16.5304 7.98538 16.6608 7.96753 16.7913 7.95132C16.8346 7.90203 16.878 7.85399 16.9216 7.80566V7.44212L16.8108 7.31531C16.6739 7.4168 16.5372 7.5193 16.4006 7.6244V7.06199C16.5745 6.92964 16.7484 6.80081 16.9223 6.6754V6.38349L16.7919 6.26802C16.6615 6.28683 16.531 6.30728 16.4006 6.33062L16.4 6.33255ZM15.7805 5.95503L15.8209 6.12857V8.42517C15.8072 8.49 15.7945 8.55487 15.7815 8.61975L15.8682 8.60224C16.0458 8.56611 16.2235 8.5337 16.4013 8.50495C16.6328 8.47143 16.8644 8.44374 17.0961 8.42189C17.2265 8.29412 17.3543 8.16664 17.4835 8.04147V7.18523C17.4075 7.12489 17.3315 7.06426 17.2552 7.00522C17.3312 6.93422 17.4072 6.86447 17.4835 6.7941V6.05135C17.353 5.93689 17.2252 5.82436 17.0961 5.71309C16.8642 5.7401 16.6325 5.77377 16.4013 5.81394C16.1934 5.8549 15.9868 5.90139 15.7815 5.95344L15.7805 5.95503ZM0.0583639 20.5237C3.17507 19.9495 6.319 19.5327 9.47811 19.275V18.6516C6.30942 18.9777 3.16367 19.4956 0.0583639 20.2026V20.5237ZM26.1155 19.3237C29.2434 19.5883 32.3716 19.9883 35.5 20.5237V20.2026C32.4015 19.5315 29.2687 19.0277 26.1155 18.6935V19.3246V19.3237ZM5.11745 10.9741C5.1634 11.1424 5.20941 11.3107 5.25896 11.4781C5.09595 12.4355 4.9329 13.4059 4.77379 14.386C4.61337 15.3795 4.45523 16.3823 4.29579 17.4023C4.21786 17.5807 4.13993 17.762 4.06201 17.9413C4.64271 17.8612 5.22341 17.7915 5.80381 17.7205C5.76141 17.5677 5.72226 17.4124 5.68316 17.257C5.71881 16.9461 5.75781 16.6358 5.80021 16.3262C6.12234 16.3041 6.44451 16.2818 6.76664 16.2613C6.80934 16.5548 6.8514 16.8451 6.89707 17.137C6.85826 17.2937 6.81882 17.4507 6.7839 17.6063C7.3503 17.5506 7.92511 17.4931 8.49768 17.438C8.42279 17.3 8.34965 17.1611 8.27826 17.0212C8.10825 16.1583 7.93829 15.285 7.76828 14.4013C7.59666 13.4992 7.42908 12.5964 7.26549 11.6928C7.31509 11.5511 7.36333 11.4093 7.4178 11.2685C6.64959 11.1803 5.88138 11.0772 5.11647 10.9767L5.11745 10.9741ZM6.27528 13.0342C6.32124 13.3715 6.37079 13.7066 6.4168 14.0413C6.46275 14.376 6.5123 14.7075 6.56186 15.0386L6.00271 15.0496C6.04867 14.711 6.09136 14.3724 6.13737 14.0358C6.18332 13.6991 6.22573 13.3667 6.27528 13.0342ZM0 10.1636L0.195634 10.1986C0.599289 10.2706 1.00621 10.3432 1.41345 10.4149C1.94101 10.5096 2.46857 10.5988 2.99939 10.6799C3.29284 11.0561 3.58629 11.4229 3.88463 11.7826V12.7605C3.88463 13.0848 3.88789 13.4118 3.88789 13.7364C3.714 13.9059 3.5401 14.078 3.3662 14.2527C3.53875 14.426 3.71342 14.5972 3.89017 14.7662V15.3328C3.89017 15.8958 3.89376 16.4588 3.89376 17.0209C3.59988 17.3705 3.30643 17.7273 3.01341 18.0912C2.48194 18.1674 1.95471 18.2511 1.42715 18.3397C1.02023 18.4084 0.612005 18.4778 0.209328 18.5446L0.0182592 18.5771C0.0427134 18.3773 0.0710802 18.1755 0.103034 17.9744L0.0922737 14.3663C0.0887957 13.1634 0.0887957 11.9601 0.0922737 10.7565C0.0596682 10.5596 0.0286929 10.3607 0.000326056 10.1623L0 10.1636ZM1.41248 11.938C1.41248 12.7596 1.41367 13.5825 1.41606 14.4065C1.41845 15.2305 1.42084 16.0528 1.42323 16.8734C1.7206 16.8409 2.01796 16.8107 2.31565 16.7812L2.61301 16.3875C2.61301 16.0518 2.60943 15.7152 2.60943 15.3775C2.52378 15.2508 2.43997 15.1229 2.35804 14.9938C2.04307 15.2374 1.73136 15.4894 1.41965 15.7472C1.41965 15.1959 1.41606 14.6445 1.41606 14.0903C1.81255 13.7977 2.20794 13.5146 2.60225 13.2412V12.43C2.50313 12.3003 2.4039 12.1687 2.30456 12.0353L1.41248 11.938ZM9.01739 11.8498C8.97849 11.7081 8.93958 11.5657 8.90068 11.4223C9.88831 11.506 10.8795 11.5845 11.8711 11.6522C12.1612 11.9227 12.4517 12.1887 12.7455 12.4527C12.7455 12.7903 12.7439 13.128 12.7455 13.4646C12.7472 13.8013 12.7491 14.1399 12.7491 14.4765C12.5189 14.7001 12.2888 14.9252 12.0589 15.1518C12.2004 15.4226 12.349 15.6908 12.4909 15.9568C12.6327 16.2227 12.7811 16.4857 12.9297 16.7481C13.0504 16.8723 13.174 16.9966 13.2979 17.1189L11.4142 17.2161L11.5121 16.8104C11.3882 16.5555 11.2682 16.298 11.1475 16.0405C11.0269 15.7829 10.9069 15.5235 10.7863 15.2621C10.634 15.2647 10.4817 15.2685 10.3298 15.2711C10.3298 15.539 10.3334 15.8079 10.3334 16.0751C10.3334 16.3424 10.337 16.61 10.3441 16.8775C10.4093 17.0109 10.4716 17.1435 10.5398 17.2752C9.97667 17.3177 9.41747 17.3589 8.85798 17.4023C8.91449 17.2542 8.97109 17.1069 9.02784 16.9606C9.02425 16.1095 9.02425 15.2575 9.02099 14.4058C9.01773 13.5541 9.01739 12.7018 9.01739 11.8498ZM10.3242 12.5922C10.3242 12.8552 10.3226 13.1182 10.3242 13.3803C10.3259 13.6423 10.3278 13.9064 10.3278 14.1694C10.6145 14.1713 10.9014 14.1739 11.1915 14.1778C11.2943 14.0868 11.397 13.9954 11.4993 13.9037C11.4958 13.5794 11.4958 13.2551 11.4958 12.9308C11.3862 12.8302 11.2799 12.7274 11.1736 12.6243C10.8906 12.6142 10.6075 12.6035 10.3242 12.5922ZM13.6559 11.7521C13.7211 11.7541 13.7863 11.757 13.8541 11.7587C14.2578 11.7713 14.6615 11.7843 15.0687 11.7982C15.5959 11.8138 16.1235 11.8238 16.6546 11.8274C16.9481 12.0658 17.2415 12.3032 17.5395 12.5409V13.2522C17.5395 13.4886 17.5435 13.727 17.5435 13.9631L17.0218 14.3413C17.1957 14.4648 17.3696 14.5878 17.5435 14.7104V15.1219C17.5435 15.5312 17.547 15.9396 17.547 16.3492C17.2496 16.5792 16.9556 16.8101 16.6615 17.041C16.1303 17.0446 15.6034 17.0475 15.0755 17.0631C14.6684 17.075 14.2647 17.0872 13.8645 17.0997C13.7971 17.0997 13.7299 17.1036 13.6663 17.1052C13.6947 16.9791 13.723 16.8532 13.7547 16.7271C13.7512 15.9599 13.7489 15.1923 13.7478 14.4243C13.7462 13.6569 13.7442 12.8889 13.7478 12.1216C13.7152 11.9983 13.6826 11.8751 13.6559 11.7508V11.7521ZM15.0687 12.8095C15.0687 13.3556 15.0719 13.9041 15.0719 14.4493C15.0719 14.9945 15.0719 15.5426 15.0755 16.0878C15.3729 16.0833 15.6702 16.0787 15.9676 16.0787C16.0655 15.9931 16.1662 15.9084 16.265 15.8238C16.265 15.5899 16.2617 15.3574 16.2617 15.1236C16.177 15.0334 16.0919 14.9442 16.01 14.854C15.695 15.0139 15.3833 15.1751 15.0719 15.3405V14.2417C15.4684 14.0409 15.8652 13.845 16.2581 13.6446V13.0826C16.1603 12.9976 16.0599 12.9123 15.9608 12.8276C15.6634 12.8221 15.3661 12.8156 15.069 12.8104L15.0687 12.8095ZM18.014 11.8365C18.0635 11.9568 18.1118 12.0784 18.1662 12.1987V14.4324C18.1662 15.1767 18.1701 15.9217 18.1734 16.6671C18.1167 16.7903 18.0603 16.9135 18.0068 17.0368C19.2637 17.0534 20.5243 17.0812 21.7809 17.1234C21.8484 16.7517 21.9159 16.3797 21.9866 16.0064L21.551 16.1037C20.8643 16.0881 20.1773 16.0713 19.4942 16.0615V14.8252C19.8764 14.8252 20.2588 14.8307 20.6413 14.8323L21.1728 14.9686C21.1688 14.5537 21.1688 14.1379 21.1688 13.7231L20.6798 13.8528C20.2833 13.8564 19.8868 13.8558 19.4903 13.8574V12.7745C19.954 12.7709 20.4212 12.765 20.8888 12.7543C21.1496 12.8069 21.4131 12.8581 21.6785 12.9116C21.5937 12.5261 21.5088 12.1412 21.4238 11.757C20.2869 11.8021 19.1506 11.8196 18.014 11.8371V11.8365ZM22.4894 12.5302C22.4894 13.165 22.4874 13.8003 22.4894 14.4344C22.4913 15.0684 22.4927 15.7058 22.4927 16.3405C22.7763 16.6291 23.0593 16.922 23.3459 17.2181C24.0046 17.2566 24.6643 17.3023 25.3251 17.3553L25.9025 17.883C26.1786 17.6484 26.4548 17.4105 26.7311 17.1695C26.5785 16.9836 26.4265 16.8013 26.2778 16.6181C26.2778 15.9016 26.2742 15.1849 26.2742 14.4671V12.3174C25.9699 12.043 25.6642 11.7702 25.3571 11.4988C24.6984 11.5556 24.0401 11.5988 23.3854 11.6402C23.0843 11.943 22.7857 12.2398 22.4894 12.5309V12.5302ZM23.8135 12.9389C23.9058 12.8477 23.9977 12.7576 24.0933 12.6645C24.2951 12.658 24.4969 12.6499 24.6984 12.6408C24.791 12.7261 24.8866 12.8111 24.9821 12.8954V14.4133C24.9821 14.9202 24.9821 15.4272 24.9857 15.9331C24.8686 16.0223 24.7555 16.1108 24.6423 16.1981C24.4665 16.1888 24.2905 16.1815 24.1145 16.176C24.0121 16.0787 23.9126 15.9863 23.8138 15.8916C23.8102 15.4005 23.8102 14.9075 23.8102 14.4152C23.8102 13.9229 23.8099 13.4306 23.8135 12.9389ZM26.8654 11.3859C26.9089 11.5239 26.9513 11.6622 26.9925 11.8008V16.5944C27.2867 16.92 27.5806 17.2521 27.8746 17.5907C28.54 17.6585 29.2094 17.737 29.8785 17.8197C30.1756 17.5244 30.473 17.221 30.7706 16.9097C30.7673 15.9925 30.7662 15.0759 30.7673 14.16V11.4093L30.8837 10.9043C30.3525 10.9708 29.8253 11.0377 29.2978 11.1032C29.3402 11.2569 29.3829 11.4103 29.4282 11.5631C29.4318 12.3275 29.4389 13.0929 29.4422 13.8584C29.4454 14.6238 29.453 15.3908 29.4598 16.1566C29.362 16.2762 29.2642 16.3956 29.1696 16.5133C28.9606 16.4968 28.7516 16.4809 28.5433 16.4656L28.2883 16.0884V11.6776C28.3379 11.5228 28.3861 11.3684 28.4406 11.2131L26.865 11.385L26.8654 11.3859ZM31.4324 10.8249C31.482 10.9851 31.5348 11.145 31.588 11.3068V17.5243C31.5316 17.69 31.4748 17.8564 31.4217 18.0192C32.6785 18.1978 33.9378 18.389 35.1994 18.5926C35.2665 18.0192 35.335 17.4429 35.4048 16.8639L34.9659 16.9891C34.2788 16.9191 33.593 16.8507 32.9085 16.7841V14.9799C33.2913 14.988 33.6737 14.9955 34.0591 15.0029L34.5903 15.2183V13.3057C34.4273 13.3796 34.2643 13.4504 34.1012 13.5211C33.7012 13.5376 33.3043 13.5551 32.9075 13.5697V11.9935C33.3751 11.9487 33.8426 11.8962 34.3096 11.8426C34.5704 11.9034 34.8324 11.9653 35.0953 12.0285C35.0106 11.4351 34.9257 10.8464 34.8407 10.2622C33.7041 10.4626 32.5675 10.6503 31.4308 10.8252L31.4324 10.8249ZM35.4051 8.45725C30.8695 9.22185 26.2935 9.72657 21.6997 9.96899V10.6325C26.3074 10.3496 30.8881 9.72999 35.4045 8.77868V8.45759L35.4051 8.45725ZM14.5248 10.014V10.6653C16.612 10.1542 18.7925 10.1542 20.8796 10.6653V10.0166C18.7978 9.46408 16.6067 9.46408 14.5248 10.0166V10.014ZM0 8.45725V8.77834C4.5164 9.72965 9.097 10.3493 13.7048 10.6322V9.96865C9.1112 9.72666 4.53541 9.22238 0 8.45821V8.45725ZM22.7212 18.8359L22.6505 18.5845H23.4933L24.4575 20.8688L24.4552 18.842L24.3407 18.5826H25.3319L25.2318 18.842V21.9303L25.3026 22.182H24.4591L23.4949 19.9512L23.4972 21.9251L23.6117 22.1846H22.6205L22.7206 21.9251V18.8365L22.7212 18.8359ZM20.0802 19.1333L20.0769 21.641L20.5823 22.1885H21.7502L22.313 21.641V19.1229L21.7724 18.5852H20.6094L20.0798 19.1339L20.0802 19.1333ZM20.8607 19.432L21.0273 19.2646H21.3831L21.5517 19.432V21.3199L21.3479 21.4954H21.0365L20.8591 21.3209L20.8607 19.432ZM19.6162 18.842L19.714 18.5845H18.7391L18.8353 18.842V21.9232L18.7391 22.181H19.713L19.6152 21.9232V18.842H19.6162ZM16.637 19.2432V21.9251L16.5408 22.183H17.5147L17.4169 21.9251V19.2432H18.0143L18.4795 19.3668L18.3231 18.5839H15.7312L15.5744 19.3668L16.0397 19.2432H16.637ZM13.8199 18.5852H15.1567L15.0667 18.8446L15.6569 21.9258L15.7873 22.1833H14.772L14.8372 21.9258L14.7638 21.4302H14.1932L14.1205 21.9258L14.1932 22.1833H13.1665L13.3044 21.9258L13.8808 18.8446L13.8199 18.5852ZM14.4798 19.6396L14.3148 20.7423H14.6448L14.4798 19.6396Z" fill="#FF6301"/>
</svg>
