<svg width="38" height="37" viewBox="0 0 38 37" fill="none" xmlns="http://www.w3.org/2000/svg">
<rect x="0.5" y="0.5" width="37" height="36" rx="7.5" fill="#FAFAFA"/>
<rect x="0.5" y="0.5" width="37" height="36" rx="7.5" stroke="#E7EBE5"/>
<path d="M18.3971 15.211C18.1913 15.3139 18.1075 15.5639 18.2104 15.7697C18.2837 15.9159 18.4308 16.0001 18.5837 16.0001C18.6462 16.0001 18.71 15.986 18.7696 15.9564C18.8129 15.9343 19.8333 15.4118 19.8333 14.3335C19.8333 13.7443 19.5221 13.4326 19.2946 13.2055C19.0904 13.0014 19 12.901 19 12.6668C19 12.4326 19.0904 12.3322 19.2946 12.128C19.5221 11.9009 19.8333 11.5892 19.8333 11.0001C19.8333 9.92177 18.8129 9.39926 18.7696 9.37758C18.5658 9.27593 18.3171 9.358 18.2133 9.56176C18.1092 9.76635 18.1913 10.0164 18.3946 10.1218C18.4004 10.1247 19 10.4409 19 11.0001C19 11.2343 18.9096 11.3347 18.7054 11.5389C18.4779 11.766 18.1666 12.0776 18.1666 12.6668C18.1666 13.2559 18.4779 13.5676 18.7054 13.7947C18.9096 13.9989 19 14.0993 19 14.3335C19 14.8927 18.4004 15.2089 18.3971 15.211Z" fill="#1763B9"/>
<path d="M15.6669 15.1677C15.6669 15.7231 15.0757 16.0385 15.0615 16.046C14.8578 16.1497 14.7748 16.3989 14.8773 16.6039C14.9507 16.7501 15.0977 16.8343 15.2507 16.8343C15.3132 16.8343 15.3769 16.8201 15.4365 16.7905C15.4798 16.7685 16.5003 16.246 16.5003 15.1677C16.5003 14.5785 16.1891 14.2668 15.9615 14.0397C15.7574 13.8356 15.6669 13.7351 15.6669 13.501C15.6669 12.9418 16.2661 12.6255 16.2699 12.6239C16.4757 12.5209 16.5595 12.2705 16.4561 12.0647C16.3536 11.8589 16.1036 11.7747 15.8974 11.8785C15.854 11.9001 14.8336 12.4226 14.8336 13.501C14.8336 14.0901 15.1448 14.4018 15.3724 14.6289C15.5766 14.833 15.6669 14.9335 15.6669 15.1677Z" fill="#1763B9"/>
<path d="M22.3335 15.1673C22.3335 15.7227 21.7427 16.0381 21.7285 16.0456C21.5244 16.1494 21.4415 16.3985 21.544 16.6035C21.6173 16.7498 21.7644 16.8339 21.9173 16.8339C21.9798 16.8339 22.0436 16.8198 22.1031 16.7902C22.1469 16.7681 23.1669 16.2456 23.1669 15.1673C23.1669 14.5781 22.8557 14.2665 22.6281 14.0394C22.424 13.8352 22.3336 13.7348 22.3336 13.5006C22.3336 12.9414 22.9327 12.6252 22.9365 12.6235C23.1423 12.5206 23.2261 12.2702 23.1227 12.0643C23.0194 11.8585 22.7694 11.7752 22.564 11.8781C22.5202 11.8998 21.5002 12.4223 21.5002 13.5006C21.5002 14.0898 21.8114 14.4014 22.039 14.6285C22.2431 14.8327 22.3335 14.9331 22.3335 15.1673Z" fill="#1763B9"/>
<path d="M12.3332 19.3345C12.6182 19.3345 12.8802 19.4804 13.0353 19.7245C13.154 19.9116 13.3986 19.9728 13.5928 19.8637C13.9195 19.6787 14.299 19.7332 14.5599 19.9732C14.6782 20.0816 14.8478 20.112 14.9965 20.0532C15.1449 19.9936 15.2465 19.8545 15.2574 19.6945C15.2874 19.2591 15.6499 18.9178 16.0832 18.9178C16.3628 18.9178 16.6224 19.0578 16.7774 19.292C16.932 19.5253 17.3178 19.5253 17.472 19.292C17.7562 18.8641 18.419 18.804 18.7753 19.1874C18.874 19.2936 19.0203 19.3415 19.1628 19.3124C19.3044 19.2841 19.422 19.1841 19.472 19.0482C19.5924 18.7207 19.9049 18.5012 20.2499 18.5012C20.7091 18.5012 21.0832 18.8749 21.0828 19.3241C21.0815 19.3328 21.077 19.3728 21.0761 19.3816C21.0653 19.5224 21.1266 19.6595 21.2394 19.7449C21.3515 19.8308 21.5007 19.8537 21.6332 19.8053C21.9936 19.6753 22.3015 19.779 22.5253 20.0207C22.624 20.127 22.7707 20.1745 22.9128 20.1457C23.0544 20.1174 23.172 20.0174 23.222 19.8816C23.3424 19.5541 23.6549 19.3345 23.9999 19.3345C24.3724 19.3345 24.7015 19.5883 24.7999 19.9516C24.8307 20.0666 24.9099 20.1628 25.0161 20.2158C25.1224 20.2691 25.2466 20.2737 25.3574 20.2295C25.7365 20.0766 26.1578 20.2246 26.3686 20.5575C26.4869 20.745 26.732 20.807 26.9257 20.6971C27.2836 20.4954 27.7032 20.5829 27.9532 20.8612C28.0353 20.9529 28.1494 20.9995 28.2632 20.9995C28.3628 20.9995 28.4624 20.9645 28.5415 20.8929C28.7128 20.7391 28.7274 20.4758 28.5736 20.3046C28.1465 19.8291 27.4548 19.6337 26.8461 19.8271C26.4861 19.4625 25.9624 19.2779 25.4466 19.3496C25.1561 18.8354 24.607 18.5013 23.9999 18.5013C23.492 18.5013 23.0191 18.7375 22.7082 19.1213C22.4512 18.9809 22.1591 18.9084 21.864 18.9188C21.679 18.2004 21.0253 17.668 20.2499 17.668C19.7424 17.668 19.2703 17.9034 18.9595 18.2863C18.3916 17.975 17.6303 18.0446 17.1249 18.4509C16.8333 18.2163 16.4678 18.0846 16.0833 18.0846C15.4312 18.0846 14.8591 18.468 14.5882 19.0271C14.2486 18.8967 13.8645 18.8821 13.5129 18.9934C13.2033 18.6809 12.7829 18.5013 12.3333 18.5013C12.1033 18.5013 11.9166 18.6879 11.9166 18.9179C11.9166 19.1479 12.1031 19.3345 12.3332 19.3345Z" fill="#1763B9"/>
<path d="M31.0833 21.834H6.91665C6.68667 21.834 6.5 22.0207 6.5 22.2506C6.5 23.3994 7.43457 24.334 8.58334 24.334H9.02294C9.23085 26.2065 10.8229 27.6673 12.75 27.6673H25.25C27.1771 27.6673 28.7687 26.2065 28.9766 24.334H29.4166C30.5653 24.334 31.4999 23.3994 31.4999 22.2506C31.4999 22.0207 31.3137 21.834 31.0833 21.834ZM29.4166 23.5006H28.5832C28.3528 23.5006 28.1666 23.6873 28.1666 23.9173C28.1666 25.5256 26.8578 26.8339 25.2499 26.8339H12.75C11.2829 26.8339 10.0658 25.7456 9.86293 24.3339H26.9166C27.147 24.3339 27.3333 24.1473 27.3333 23.9173C27.3333 23.6873 27.147 23.5006 26.9166 23.5006H8.58334C8.03998 23.5006 7.57666 23.1523 7.40459 22.6673H30.5953C30.4232 23.1523 29.9599 23.5006 29.4166 23.5006Z" fill="#1763B9"/>
<path d="M6.75257 18.4676L12.5859 20.9676C12.6392 20.9905 12.6951 21.0018 12.7497 21.0018C12.9117 21.0018 13.0655 20.9068 13.133 20.7489C13.2238 20.5372 13.1255 20.2922 12.9143 20.2018L7.08094 17.7018C6.86927 17.611 6.62386 17.7093 6.53387 17.9206C6.443 18.1322 6.54134 18.3772 6.75257 18.4676Z" fill="#1763B9"/>
</svg>
